<svg xmlns="http://www.w3.org/2000/svg" xmlns:xlink="http://www.w3.org/1999/xlink" width="500" zoomAndPan="magnify" viewBox="0 0 375 374.999991" height="500" preserveAspectRatio="xMidYMid meet" version="1.0"><defs><clipPath id="ed7cfad70f"><path d="M 0 11.953125 L 363 11.953125 L 363 362.953125 L 0 362.953125 Z M 0 11.953125 " clip-rule="nonzero"/></clipPath></defs><g clip-path="url(#ed7cfad70f)"><path fill="#ffffff" d="M 187.183594 362.875 C 187.175781 362.875 187.171875 362.875 187.167969 362.875 C 178.757812 362.875 170.246094 362.265625 161.878906 361.058594 C 128.644531 356.273438 97.8125 342.328125 72.496094 320.660156 L 8.128906 331.359375 C 5.667969 331.773438 3.1875 330.761719 1.707031 328.75 C 0.230469 326.742188 0.0078125 324.074219 1.132812 321.84375 L 29.453125 265.828125 C 13.210938 233.796875 7.351562 198.082031 12.5 162.320312 C 18.542969 120.382812 39.660156 82.0625 71.960938 54.417969 C 103.949219 27.039062 144.632812 11.964844 186.519531 11.964844 C 194.921875 11.964844 203.421875 12.574219 211.792969 13.777344 C 211.8125 13.78125 211.832031 13.78125 211.847656 13.785156 C 211.851562 13.785156 211.859375 13.789062 211.863281 13.789062 C 211.882812 13.792969 211.90625 13.792969 211.925781 13.796875 C 308.023438 27.648438 374.980469 116.792969 361.191406 212.519531 C 355.148438 254.457031 334.035156 292.777344 301.734375 320.421875 C 269.75 347.796875 229.066406 362.875 187.183594 362.875 Z M 74.492188 306.996094 C 76.101562 306.996094 77.667969 307.582031 78.890625 308.664062 C 102.699219 329.800781 132.050781 343.386719 163.765625 347.953125 C 171.511719 349.070312 179.386719 349.636719 187.167969 349.636719 C 187.175781 349.636719 187.179688 349.636719 187.183594 349.636719 C 267.496094 349.636719 336.664062 289.882812 348.082031 210.632812 C 360.832031 122.136719 298.914062 39.722656 210.054688 26.90625 C 210.042969 26.902344 210.035156 26.902344 210.023438 26.902344 C 210 26.898438 209.980469 26.894531 209.976562 26.894531 C 209.949219 26.890625 209.917969 26.886719 209.882812 26.878906 C 202.144531 25.769531 194.28125 25.203125 186.519531 25.203125 C 106.203125 25.203125 37.027344 84.964844 25.609375 164.210938 C 20.695312 198.316406 26.621094 232.367188 42.738281 262.679688 C 43.746094 264.582031 43.773438 266.855469 42.800781 268.773438 L 18.847656 316.15625 L 73.40625 307.085938 C 73.769531 307.023438 74.132812 306.996094 74.492188 306.996094 Z M 242.539062 288.609375 C 230.453125 288.609375 214.359375 284.191406 190.359375 274.289062 C 159.464844 261.550781 128.824219 234.898438 104.089844 199.238281 C 103.675781 198.640625 103.386719 198.214844 103.222656 197.996094 C 103.207031 197.976562 103.164062 197.921875 103.148438 197.898438 L 102.9375 197.613281 C 95.019531 186.871094 81.734375 165.507812 81.734375 143.097656 C 81.734375 116.851562 94.917969 103.523438 100.546875 97.828125 L 100.972656 97.398438 C 107.503906 90.753906 114.265625 87.382812 121.066406 87.382812 C 141.691406 87.382812 152.6875 116.9375 158.59375 132.816406 C 159.441406 135.097656 160.246094 137.25 160.679688 138.164062 C 161.664062 140.191406 164.710938 146.460938 161.363281 153.066406 C 159.488281 157.011719 157.664062 159.097656 155.359375 161.734375 L 154.921875 162.234375 C 153.789062 163.535156 152.699219 164.6875 151.644531 165.800781 C 150.28125 167.242188 148.996094 168.601562 147.703125 170.191406 C 147.667969 170.234375 147.632812 170.277344 147.597656 170.320312 L 147.464844 170.472656 C 146.941406 171.085938 146.171875 171.988281 145.941406 172.449219 C 145.980469 172.578125 146.074219 172.820312 146.292969 173.195312 C 149.738281 179 159.25 193.875 172.460938 205.578125 C 188.996094 220.222656 202.351562 225.59375 208.769531 228.171875 C 209.363281 228.410156 209.898438 228.625 210.363281 228.820312 C 211.117188 229.128906 211.921875 229.296875 212.6875 229.296875 C 213.257812 229.296875 214.316406 229.195312 214.957031 228.511719 C 217.933594 225.316406 221.742188 219.988281 225.773438 214.347656 L 227.640625 211.738281 C 231.921875 205.71875 237.203125 204.445312 240.878906 204.445312 C 242.988281 204.445312 245.191406 204.867188 247.421875 205.695312 C 276.269531 215.683594 289.925781 223.761719 294.550781 233.574219 C 298.339844 241.617188 295.585938 248.996094 292.921875 256.128906 C 292.542969 257.148438 292.152344 258.191406 291.769531 259.265625 C 286.800781 273.238281 268.425781 284.15625 253.65625 287.335938 C 250.734375 287.953125 247.25 288.609375 242.539062 288.609375 Z M 113.792969 190.023438 C 114.066406 190.382812 114.414062 190.886719 114.972656 191.691406 C 138.273438 225.285156 166.839844 250.269531 195.410156 262.050781 C 217.433594 271.136719 232.40625 275.367188 242.539062 275.367188 C 245.972656 275.367188 248.546875 274.882812 250.890625 274.386719 C 262.09375 271.972656 276.191406 263.539062 279.289062 254.835938 C 279.691406 253.695312 280.105469 252.585938 280.511719 251.5 C 282.789062 245.398438 283.917969 242.082031 282.570312 239.21875 C 279.824219 233.390625 266.515625 226.3125 243.015625 218.183594 C 242.964844 218.164062 242.910156 218.144531 242.855469 218.125 C 242.097656 217.839844 241.414062 217.6875 240.878906 217.6875 C 240.484375 217.6875 239.65625 217.6875 238.417969 219.4375 L 236.550781 222.042969 C 232.261719 228.042969 228.214844 233.714844 224.621094 237.570312 C 221.585938 240.78125 217.359375 242.535156 212.6875 242.535156 C 210.203125 242.535156 207.648438 242.023438 205.296875 241.050781 C 204.859375 240.875 204.371094 240.679688 203.824219 240.457031 C 197.273438 237.824219 181.925781 231.65625 163.679688 215.492188 C 149.59375 203.015625 139.585938 187.839844 134.875 179.90625 C 129.652344 170.929688 135.082031 164.582031 137.398438 161.871094 L 137.472656 161.785156 C 139.058594 159.832031 140.566406 158.242188 142.023438 156.703125 C 143.03125 155.640625 143.980469 154.636719 144.9375 153.535156 L 145.386719 153.019531 C 147.46875 150.640625 148.332031 149.65625 149.433594 147.320312 C 149.46875 147.246094 149.503906 147.171875 149.542969 147.097656 C 149.796875 146.605469 149.519531 145.503906 148.746094 143.910156 C 148.035156 142.425781 147.257812 140.332031 146.179688 137.433594 C 143.753906 130.917969 140.089844 121.070312 135.207031 112.992188 C 131.796875 107.351562 126.574219 100.625 121.066406 100.625 C 117.1875 100.625 113.132812 103.921875 110.414062 106.6875 L 109.964844 107.140625 C 105.097656 112.058594 94.976562 122.292969 94.976562 143.101562 C 94.976562 156.703125 101.765625 173.707031 113.601562 189.761719 Z M 113.792969 190.023438 " fill-opacity="1" fill-rule="nonzero"/></g><path fill="#ffffff" d="M 7.042969 331.449219 C 4.957031 331.449219 2.96875 330.464844 1.707031 328.75 C 0.230469 326.742188 0.0078125 324.074219 1.132812 321.84375 L 46.96875 231.171875 C 48.621094 227.90625 52.601562 226.597656 55.867188 228.25 C 59.132812 229.898438 60.441406 233.878906 58.789062 237.144531 L 18.847656 316.15625 L 109.394531 301.101562 C 113.003906 300.5 116.414062 302.941406 117.015625 306.546875 C 117.613281 310.152344 115.175781 313.566406 111.570312 314.164062 L 8.128906 331.359375 C 7.765625 331.421875 7.402344 331.449219 7.042969 331.449219 Z M 7.042969 331.449219 " fill-opacity="1" fill-rule="nonzero"/></svg>